<svg width="430" height="563" viewBox="0 0 430 563" fill="none" xmlns="http://www.w3.org/2000/svg">
<path d="M0.5 562V562.5H1H114.306H114.806V562V356.132H275.449L315.194 395.911V562V562.5H315.694H429H429.5V562V355.632V355.438L429.369 355.294L380.86 302.367L429.338 257.825L429.5 257.677V257.457V83.5472V83.3402L429.354 83.1938L346.877 0.646597L346.73 0.5H346.523H1H0.5V1V562ZM82.9771 323.174V531.046H32.7292V31.9543H330.301L396.87 98.5806V245.209L335.784 298.755L335.399 299.093L335.745 299.469L398.472 367.848V531.046H347.824V384.484V384.283L347.686 384.139L289.231 322.829L289.083 322.674H288.869H83.4771H82.9771V323.174ZM113.806 242.23V242.73H114.306H291.271H291.481L291.628 242.581L316.051 217.736L316.194 217.59V217.386V138.846V138.639L316.048 138.492L291.625 114.049L291.479 113.902H291.271H114.306H113.806V114.402V242.23Z" fill="#F3EDED" stroke="#F3EDED"/>
</svg>
